<svg width="16" height="16" viewBox="0 0 16 16" fill="none" xmlns="http://www.w3.org/2000/svg">
<g clip-path="url(#clip0_839_828)">
<path fill-rule="evenodd" clip-rule="evenodd" d="M15.8604 5.185C16.0465 5.38224 16.0465 5.70202 15.8604 5.89925L13.3181 8.59286C13.132 8.79009 12.8302 8.79009 12.644 8.59286L11.3729 7.24606C11.1868 7.04882 11.1868 6.72904 11.3729 6.53181C11.5591 6.33457 11.8609 6.33457 12.047 6.53181L12.9811 7.52148L15.1863 5.185C15.3724 4.98777 15.6742 4.98777 15.8604 5.185Z" fill="#016877"/>
<path fill-rule="evenodd" clip-rule="evenodd" d="M2.2661 10.3425C2.86336 9.7119 3.67342 9.35765 4.51807 9.35765H9.88188C10.7265 9.35765 11.5366 9.7119 12.1338 10.3425C13.1472 11.4124 13.0666 12.7747 13.0666 14.1358C13.0666 14.429 12.8415 14.6667 12.5638 14.6667C12.2861 14.6667 12.0609 14.429 12.0609 14.1358C12.0609 13.0801 12.2129 11.9276 11.4227 11.0933C11.014 10.6618 10.4598 10.4195 9.88188 10.4195H4.51807C3.94015 10.4195 3.3859 10.6618 2.97725 11.0933C2.18702 11.9276 2.33902 13.0801 2.33902 14.1358C2.33902 14.429 2.11388 14.6667 1.83616 14.6667C1.55844 14.6667 1.33331 14.429 1.33331 14.1358C1.33331 12.7747 1.2527 11.4124 2.2661 10.3425Z" fill="#016877"/>
<path fill-rule="evenodd" clip-rule="evenodd" d="M7.19997 2.39519C5.99652 2.39519 5.02092 3.4252 5.02092 4.69578C5.02092 5.96636 5.99652 6.99637 7.19997 6.99637C8.40343 6.99637 9.37902 5.96636 9.37902 4.69578C9.37902 3.4252 8.40343 2.39519 7.19997 2.39519ZM4.01521 4.69578C4.01521 2.83877 5.44108 1.33337 7.19997 1.33337C8.95887 1.33337 10.3847 2.83877 10.3847 4.69578C10.3847 6.55278 8.95887 8.05819 7.19997 8.05819C5.44108 8.05819 4.01521 6.55278 4.01521 4.69578Z" fill="#016877"/>
</g>
<defs>
<clipPath id="clip0_839_828">
<rect width="16" height="16" fill="white"/>
</clipPath>
</defs>
</svg>
