<svg width="32" height="32" viewBox="0 0 32 32" fill="none" xmlns="http://www.w3.org/2000/svg">
<path opacity="0.12" d="M19.3334 31.3334C25.9608 31.3334 31.3334 25.9608 31.3334 19.3334C31.3334 12.706 25.9608 7.33337 19.3334 7.33337C12.706 7.33337 7.33337 12.706 7.33337 19.3334C7.33337 25.9608 12.706 31.3334 19.3334 31.3334Z" fill="white"/>
<path fill-rule="evenodd" clip-rule="evenodd" d="M16 3.45837C15.768 3.45837 15.5454 3.55056 15.3813 3.71466C15.2172 3.87875 15.125 4.10131 15.125 4.33337V16C15.125 16.4833 15.5168 16.875 16 16.875H27.6667C28.15 16.875 28.5417 16.4833 28.5417 16C28.5417 14.353 28.2173 12.7222 27.587 11.2006C26.9568 9.67893 26.0329 8.29634 24.8683 7.13174C23.7037 5.96714 22.3212 5.04333 20.7995 4.41305C19.2779 3.78277 17.647 3.45837 16 3.45837ZM16.875 15.125V5.2439C17.9925 5.33481 19.0908 5.59944 20.1298 6.02984C21.4391 6.57217 22.6288 7.36708 23.6309 8.36918C24.633 9.37128 25.4279 10.5609 25.9702 11.8702C26.4006 12.9093 26.6653 14.0076 26.7562 15.125H16.875Z" fill="white"/>
<path d="M11.6838 6.10399C12.1267 5.91071 12.3291 5.39497 12.1358 4.95206C11.9425 4.50914 11.4268 4.30677 10.9839 4.50005C9.10624 5.31942 7.45791 6.58627 6.18299 8.18985C4.90806 9.79342 4.04537 11.6849 3.67033 13.6989C3.29529 15.7129 3.41932 17.7881 4.03158 19.7431C4.64383 21.6981 5.72568 23.4734 7.18252 24.9137C8.63937 26.354 10.4269 27.4155 12.3887 28.0054C14.3506 28.5953 16.4271 28.6956 18.4367 28.2976C20.4463 27.8996 22.3278 27.0153 23.9167 25.7222C25.5056 24.429 26.7535 22.7663 27.5514 20.8795C27.7396 20.4344 27.5314 19.921 27.0863 19.7328C26.6412 19.5446 26.1278 19.7528 25.9396 20.1979C25.2531 21.8215 24.1792 23.2522 22.812 24.3649C21.4448 25.4776 19.8259 26.2385 18.0967 26.5809C16.3675 26.9234 14.5807 26.8371 12.8926 26.3295C11.2045 25.8219 9.66644 24.9085 8.41288 23.6692C7.15931 22.4299 6.22842 20.9023 5.70159 19.2201C5.17477 17.5379 5.06804 15.7523 5.39075 14.0193C5.71346 12.2863 6.45578 10.6587 7.55281 9.27893C8.64984 7.89911 10.0682 6.80902 11.6838 6.10399Z" fill="white"/>
</svg>
