<svg width="16" height="16" viewBox="0 0 16 16" fill="none" xmlns="http://www.w3.org/2000/svg">
<g clip-path="url(#clip0_837_19880)">
<path fill-rule="evenodd" clip-rule="evenodd" d="M8.28336 0.0979757C8.11669 -0.0326586 7.88331 -0.0326586 7.71664 0.0979757L2.17818 4.43906C2.06576 4.52718 2 4.66267 2 4.8062V11.6279C2 12.0802 2.1783 12.514 2.49567 12.8338C2.81303 13.1537 3.24348 13.3333 3.69231 13.3333H12.3077C12.7565 13.3333 13.187 13.1537 13.5043 12.8338C13.8217 12.514 14 12.0802 14 11.6279V4.8062C14 4.66267 13.9342 4.52718 13.8218 4.43906L8.28336 0.0979757ZM10.3077 12.4031H12.3077C12.5117 12.4031 12.7074 12.3214 12.8516 12.1761C12.9959 12.0307 13.0769 11.8335 13.0769 11.6279V5.03368L8 1.05435L2.92308 5.03368V11.6279C2.92308 11.8335 3.00412 12.0307 3.14838 12.1761C3.29264 12.3214 3.4883 12.4031 3.69231 12.4031H5.69231V7.90698C5.69231 7.6501 5.89895 7.44186 6.15385 7.44186H9.84615C10.1011 7.44186 10.3077 7.6501 10.3077 7.90698V12.4031ZM6.61538 12.4031V8.37209H9.38462V12.4031H6.61538Z" fill="#016877"/>
</g>
<defs>
<clipPath id="clip0_837_19880">
<rect width="16" height="16" fill="white"/>
</clipPath>
</defs>
</svg>
