<svg width="96" height="96" viewBox="0 0 96 96" fill="none" xmlns="http://www.w3.org/2000/svg">
<path opacity="0.12" d="M24 48C24 38.6112 31.6112 31 41 31H79C88.3888 31 96 38.6112 96 48V70C96 79.3888 88.3888 87 79 87H41C31.6112 87 24 79.3888 24 70V48Z" fill="#4EA0EB"/>
<path d="M68.1957 8.81109C69.2772 7.72964 71.0305 7.72964 72.112 8.81109L83.1889 19.888C83.4544 20.1535 83.6547 20.4595 83.7899 20.7861C83.9253 21.1126 84 21.4707 84 21.8462C84 22.5549 83.7296 23.2636 83.1889 23.8043L72.112 34.8812C71.0305 35.9627 69.2772 35.9627 68.1957 34.8812C67.1143 33.7998 67.1143 32.0464 68.1957 30.9649L74.5453 24.6154H29.5385C26.3559 24.6154 23.3036 25.8797 21.0532 28.1301C18.8027 30.3805 17.5385 33.4328 17.5385 36.6154V44C17.5385 45.5294 16.2986 46.7692 14.7692 46.7692C13.2398 46.7692 12 45.5294 12 44V36.6154C12 31.9639 13.8478 27.5029 17.1369 24.2138C20.426 20.9247 24.887 19.0769 29.5385 19.0769H74.5453L68.1957 12.7274C67.1143 11.6459 67.1143 9.89254 68.1957 8.81109Z" fill="#4EA0EB"/>
<path d="M78.4615 51.3846C78.4615 49.8552 79.7014 48.6154 81.2308 48.6154C82.7602 48.6154 84 49.8552 84 51.3846V58.7692C84 63.4207 82.1522 67.8817 78.8631 71.1708C75.574 74.4599 71.113 76.3077 66.4615 76.3077H21.4547L27.8043 82.6572C28.8857 83.7387 28.8857 85.4921 27.8043 86.5735C26.7228 87.655 24.9695 87.655 23.888 86.5735L12.8111 75.4966C12.5456 75.2311 12.3453 74.9251 12.2101 74.5985C12.0747 74.272 12 73.9139 12 73.5385C12 73.163 12.0747 72.805 12.2101 72.4784C12.3453 72.1518 12.5456 71.8458 12.8111 71.5803L23.888 60.5034C24.9695 59.4219 26.7228 59.4219 27.8043 60.5034C28.8857 61.5848 28.8857 63.3382 27.8043 64.4197L21.4547 70.7692H66.4615C69.6441 70.7692 72.6964 69.5049 74.9468 67.2545C77.1973 65.0041 78.4615 61.9518 78.4615 58.7692V51.3846Z" fill="#4EA0EB"/>
<path d="M51.2633 45.2177L46.1113 43.4501C46.1113 43.4501 45.7678 43.4501 45.7678 43.0965V42.743V41.6825C45.7678 41.329 45.7678 41.329 46.1113 40.9754C46.1113 40.9754 46.4547 40.6219 46.7982 40.6219H49.8894C50.2329 40.6219 50.2329 40.6219 50.5764 40.9754C50.5764 40.9754 50.9198 41.329 50.9198 41.6825C50.2329 43.0965 51.6068 44.1571 52.6372 44.1571C53.6676 44.1571 55.0415 43.0965 55.0415 41.6825C55.0415 40.2684 54.3545 38.5008 53.3241 37.4402C52.6372 36.7332 51.6068 36.0262 50.2329 35.6726V33.5515C50.2329 32.1375 49.2025 31.0769 47.8286 31.0769C46.4547 31.0769 45.4243 32.1375 45.4243 33.5515V35.6726C44.3939 36.0262 43.02 36.7332 42.3331 37.4402C41.3027 38.5008 40.6157 40.2684 40.6157 41.6825V42.743C40.6157 44.1571 40.9592 45.2177 41.6461 46.2782C42.3331 47.3388 43.3635 48.0458 44.3939 48.3993L49.546 50.1669C49.546 50.1669 49.8894 50.1669 49.8894 50.5204V50.874V53.7021C49.8894 54.0556 49.8894 54.0556 49.546 54.4091C49.546 54.4091 49.2025 54.7627 48.859 54.7627H46.4547C46.1113 54.7627 46.1113 54.7627 45.7678 54.4091C45.7678 54.4091 45.4243 54.0556 45.4243 53.7021C45.4243 52.288 44.3939 51.2275 43.02 51.2275C41.6461 51.2275 40.6157 52.288 40.6157 53.7021C40.6157 55.1162 41.3027 56.8838 42.3331 57.9443C43.3635 59.0049 44.3939 59.3584 45.4243 59.7119V61.833C45.4243 63.2471 46.4547 64.3077 47.8286 64.3077C49.2025 64.3077 50.2329 63.2471 50.2329 61.833V59.7119C51.6068 59.3584 52.6372 58.6514 53.6676 57.9443C54.698 56.8838 55.385 55.4697 55.385 53.7021V50.874C55.385 49.4599 55.0415 48.3993 54.3545 47.3388C53.6676 46.4605 52.6372 45.5712 51.2633 45.2177Z" fill="#4EA0EB"/>
</svg>
