<svg width="32" height="32" viewBox="0 0 32 32" fill="none" xmlns="http://www.w3.org/2000/svg">
<path opacity="0.12" fill-rule="evenodd" clip-rule="evenodd" d="M12.993 7.58335V7.28474C12.993 6.13031 13.9288 5.19446 15.0833 5.19446H22.2499C23.4044 5.19446 24.3402 6.13031 24.3402 7.28474V7.58335H25.8333C26.7044 7.58335 27.5399 7.92941 28.1559 8.54542C28.7719 9.16142 29.118 9.99691 29.118 10.8681V27.5903C29.118 28.4615 28.7719 29.2969 28.1559 29.9129C27.5399 30.5289 26.7044 30.875 25.8333 30.875H11.4999C10.6288 30.875 9.79329 30.5289 9.17728 29.9129C8.56128 29.2969 8.21521 28.4615 8.21521 27.5903V10.8681C8.21521 9.99691 8.56128 9.16142 9.17728 8.54542C9.79329 7.92941 10.6288 7.58335 11.4999 7.58335H12.993Z" fill="#CCE1E4"/>
<path d="M9.13192 15.7014C9.13192 15.2066 9.53299 14.8055 10.0278 14.8055H17.1944C17.6892 14.8055 18.0902 15.2066 18.0902 15.7014C18.0902 16.1961 17.6892 16.5972 17.1944 16.5972H10.0278C9.53299 16.5972 9.13192 16.1961 9.13192 15.7014Z" fill="#CCE1E4"/>
<path d="M10.0278 18.3889C9.53299 18.3889 9.13192 18.7899 9.13192 19.2847C9.13192 19.7794 9.53299 20.1805 10.0278 20.1805H20.7777C21.2725 20.1805 21.6736 19.7794 21.6736 19.2847C21.6736 18.7899 21.2725 18.3889 20.7777 18.3889H10.0278Z" fill="#CCE1E4"/>
<path fill-rule="evenodd" clip-rule="evenodd" d="M10.3264 5.24997V4.95136C10.3264 3.79693 11.2622 2.86108 12.4166 2.86108H19.5833C20.7377 2.86108 21.6736 3.79693 21.6736 4.95136V5.24997H23.1666C24.0378 5.24997 24.8733 5.59604 25.4893 6.21205C26.1053 6.82805 26.4514 7.66353 26.4514 8.53469V25.2569C26.4514 26.1281 26.1053 26.9636 25.4893 27.5796C24.8733 28.1956 24.0378 28.5416 23.1666 28.5416H8.83331C7.96214 28.5416 7.12666 28.1956 6.51066 27.5796C5.89465 26.9636 5.54858 26.1281 5.54858 25.2569V8.53469C5.54858 7.66353 5.89465 6.82805 6.51066 6.21205C7.12666 5.59604 7.96214 5.24997 8.83331 5.24997H10.3264ZM12.118 4.95136C12.118 4.78644 12.2517 4.65275 12.4166 4.65275H19.5833C19.7482 4.65275 19.8819 4.78644 19.8819 4.95136V7.34025C19.8819 7.50517 19.7482 7.63886 19.5833 7.63886H12.4166C12.2517 7.63886 12.118 7.50517 12.118 7.34025V4.95136ZM21.6736 7.04164H23.1666C23.5626 7.04164 23.9424 7.19894 24.2224 7.47894C24.5024 7.75895 24.6597 8.13871 24.6597 8.53469V25.2569C24.6597 25.6529 24.5024 26.0327 24.2224 26.3127C23.9424 26.5927 23.5626 26.75 23.1666 26.75H8.83331C8.43732 26.75 8.05756 26.5927 7.77756 26.3127C7.49755 26.0327 7.34025 25.6529 7.34025 25.2569V8.53469C7.34025 8.13871 7.49755 7.75895 7.77756 7.47894C8.05756 7.19894 8.43732 7.04164 8.83331 7.04164H10.3264V7.34025C10.3264 8.49468 11.2622 9.43053 12.4166 9.43053H19.5833C20.7377 9.43053 21.6736 8.49468 21.6736 7.34025V7.04164Z" fill="#CCE1E4"/>
</svg>
